HIERARCHY
ROOT root
{
	OFFSET 0.000000 0.000000 0.000000
	CHANNELS 6 Xposition Yposition Zposition Zrotation Yrotation Xrotation
	JOINT lhip
	{
		OFFSET 0.058581 -0.082280 -0.017664
		CHANNELS 3 Zrotation Yrotation Xrotation
		JOINT lknee
		{
			OFFSET 0.043451 -0.386469 0.008037
			CHANNELS 3 Zrotation Yrotation Xrotation
			JOINT lankle
			{
				OFFSET -0.014790 -0.426874 -0.037428
				CHANNELS 3 Zrotation Yrotation Xrotation
				JOINT ltoe
				{
					OFFSET 0.041054 -0.060286 0.122042
					CHANNELS 3 Zrotation Yrotation Xrotation
					End Site
					{
						OFFSET 0.000000 0.000000 0.000000
					}
				}
			}
		}
	}
	JOINT rhip
	{
		OFFSET -0.060310 -0.090513 -0.013543
		CHANNELS 3 Zrotation Yrotation Xrotation
		JOINT rknee
		{
			OFFSET -0.043257 -0.383688 -0.004843
			CHANNELS 3 Zrotation Yrotation Xrotation
			JOINT rankle
			{
				OFFSET 0.019056 -0.420046 -0.034562
				CHANNELS 3 Zrotation Yrotation Xrotation
				JOINT rtoe
				{
					OFFSET -0.034840 -0.062106 0.130323
					CHANNELS 3 Zrotation Yrotation Xrotation
					End Site
					{
						OFFSET 0.000000 0.000000 0.000000
					}
				}
			}
		}
	}
	JOINT lowerback
	{
		OFFSET 0.004439 0.124404 -0.038385
		CHANNELS 3 Zrotation Yrotation Xrotation
		JOINT upperback
		{
			OFFSET 0.004488 0.137956 0.026820
			CHANNELS 3 Zrotation Yrotation Xrotation
			JOINT chest
			{
				OFFSET -0.002265 0.056032 0.002855
				CHANNELS 3 Zrotation Yrotation Xrotation
				JOINT lowerneck
				{
					OFFSET -0.013390 0.211636 -0.033468
					CHANNELS 3 Zrotation Yrotation Xrotation
					JOINT upperneck
					{
						OFFSET 0.010113 0.088937 0.050410
						CHANNELS 3 Zrotation Yrotation Xrotation
						End Site
						{
							OFFSET 0.000000 0.000000 0.000000
						}
					}
				}
				JOINT lclavicle
				{
					OFFSET 0.071702 0.114000 -0.018898
					CHANNELS 3 Zrotation Yrotation Xrotation
					JOINT lshoulder
					{
						OFFSET 0.122921 0.045205 -0.019046
						CHANNELS 3 Zrotation Yrotation Xrotation
						JOINT lelbow
						{
							OFFSET 0.255332 -0.015649 -0.022946
							CHANNELS 3 Zrotation Yrotation Xrotation
							JOINT lwrist
							{
								OFFSET 0.265709 0.012698 -0.007375
								CHANNELS 3 Zrotation Yrotation Xrotation
								End Site
								{
									OFFSET 0.000000 0.000000 0.000000
								}
							}
						}
					}
				}
				JOINT rclavicle
				{
					OFFSET -0.082954 0.112472 -0.023707
					CHANNELS 3 Zrotation Yrotation Xrotation
					JOINT rshoulder
					{
						OFFSET -0.113228 0.046853 -0.008472
						CHANNELS 3 Zrotation Yrotation Xrotation
						JOINT relbow
						{
							OFFSET -0.260127 -0.014369 -0.031269
							CHANNELS 3 Zrotation Yrotation Xrotation
							JOINT rwrist
							{
								OFFSET -0.269108 0.006794 -0.006027
								CHANNELS 3 Zrotation Yrotation Xrotation
								End Site
								{
									OFFSET 0.000000 0.000000 0.000000
								}
							}
						}
					}
				}
			}
		}
	}
}
MOTION
Frames: 13
Frame Time: 0.033333
-1.546518 0.820075 0.995771 -114.373967 0.599874 80.176645 -7.287833 4.162677 -6.833091 -8.297773 -10.553909 31.028915 10.324508 12.160397 -25.830246 0.000000 -0.000000 0.000000 -0.845185 -2.071321 -3.092302 7.689955 3.137260 79.817369 6.029407 -12.224610 -21.049969 0.000000 -0.000000 0.000000 -2.851713 1.917977 11.467389 -0.239932 -1.355186 1.706900 -2.034590 0.686696 1.127809 2.481566 7.969279 7.438150 7.996572 14.630019 5.223538 -22.412580 -0.034218 0.078457 -27.389350 6.837808 -4.175479 6.407070 -30.036159 -6.570711 -17.980942 -7.828203 0.057618 20.054550 -1.291943 0.074337 57.454514 -19.921727 -0.339919 -23.039707 19.029499 -30.087782 25.619496 1.275387 -4.749474 
-1.583936 0.821452 1.020236 -112.891828 0.646885 79.460947 -8.311217 2.764927 -2.395904 -7.664307 -11.910896 28.692964 7.518443 11.070676 -19.514863 0.000000 -0.000000 0.000000 1.205232 0.840610 -5.368919 7.261609 2.715372 74.170126 5.680848 -11.202070 -20.884794 0.000000 -0.000000 0.000000 -2.976988 0.212696 11.253614 0.485912 -1.539356 2.538696 -1.722266 0.378215 1.549014 2.643190 9.340112 7.565646 6.739555 13.521516 6.478756 -22.970338 0.731607 -1.001650 -29.655812 4.596993 -0.812695 5.848116 -36.268579 -6.139226 -16.845516 -10.044939 -0.152450 21.002403 -1.329686 -0.981103 57.313094 -18.373000 2.962795 -22.910282 22.962189 -29.221895 24.954958 1.477902 -5.474664 
-1.618472 0.821449 1.053302 -110.797815 1.160425 78.858718 -7.430576 3.011155 -1.399605 -8.260575 -11.351307 30.447865 0.336507 6.120464 -10.840072 0.000000 -0.000000 0.000000 3.281389 2.774892 -7.272993 6.157164 2.443281 67.341017 4.717785 -9.237619 -19.280668 0.000000 -0.000000 0.000000 -2.992514 -1.077076 10.727982 1.650905 -2.133769 4.109124 -1.277484 -0.164000 1.048385 2.370872 10.338705 8.226884 5.633041 12.580216 7.058146 -23.833588 1.333406 -1.444439 -32.881439 3.181462 2.622666 5.938835 -45.179170 -2.784610 -18.999072 -11.879379 0.120622 22.225258 -1.799540 -1.782974 57.033063 -16.457907 4.226889 -22.165227 27.386895 -27.027180 29.036712 2.374043 -8.589577 
-1.650317 0.819703 1.085435 -108.202664 1.709915 78.226377 -6.326451 3.866231 -2.314030 -8.305524 -11.616665 33.218206 -7.526501 0.793117 -3.443894 0.000000 -0.000000 0.000000 4.596456 3.108586 -8.838041 4.137007 2.254099 60.960839 4.761728 -6.963010 -18.581798 0.000000 -0.000000 0.000000 -2.676595 -1.929862 10.695395 2.375386 -2.905119 5.111388 -0.796287 -0.623962 0.335447 1.809342 10.539840 9.687174 5.204871 12.038197 6.594367 -23.701812 1.372973 -1.265290 -37.303315 0.806703 5.158297 5.256199 -51.702829 0.788502 -17.391124 -15.611072 -1.838766 22.431620 -1.968102 -1.932909 58.682379 -15.067363 4.972154 -21.593596 30.378206 -25.561478 26.845489 5.142044 -10.994960 
-1.682628 0.816461 1.108604 -105.773587 1.745329 77.821552 -6.558944 2.825436 -1.879946 -6.478235 -13.205611 31.305483 -7.184724 -0.266163 -3.376133 0.000000 -0.000000 0.000000 4.735599 2.628288 -10.317218 2.536513 2.393462 55.845478 4.995712 -6.627969 -18.114412 0.000000 -0.000000 0.000000 -2.471609 -2.146731 10.315352 2.634238 -3.247739 5.635104 -0.301562 -0.976010 0.001574 1.018576 9.382876 10.545467 5.269785 11.540232 6.158266 -22.700554 0.869366 -0.864331 -42.035794 -2.115212 7.553452 2.393399 -57.591330 6.874025 -14.334387 -17.819040 -5.255112 21.274076 -1.940354 -1.494472 62.011887 -14.179935 5.562277 -22.323797 33.198458 -25.056897 24.621438 7.022086 -13.130735 
-1.716696 0.814004 1.120406 -104.189847 1.416453 77.651540 -7.103762 0.388098 0.361063 -2.282455 -11.824745 22.730365 -1.458077 3.947146 -4.322848 0.000000 -0.000000 0.000000 4.425920 3.475792 -11.051499 2.243596 2.661546 50.869294 4.993813 -7.531223 -18.494184 0.000000 -0.000000 0.000000 -2.225098 -2.272789 9.317224 2.420115 -2.651586 5.903371 -0.307735 -1.305491 0.289264 0.707161 7.997175 10.104841 5.487521 10.974213 6.346724 -21.384399 0.930164 -0.693419 -46.143928 -5.408731 11.313829 -4.031175 -63.602636 15.076780 -7.162873 -18.557507 -12.444161 20.213183 -2.361257 -1.299114 64.949166 -13.355631 8.165551 -23.034058 36.755592 -24.672523 20.400714 8.439114 -14.776437 
-1.749179 0.812883 1.120806 -102.469089 1.245809 77.493513 -6.990627 0.290355 1.832740 1.112300 -11.272180 13.556973 -0.359630 3.711743 -1.194005 0.000000 -0.000000 0.000000 4.510130 4.157739 -11.549210 1.286623 3.000621 46.262228 5.201873 -6.041806 -18.318431 0.000000 -0.000000 0.000000 -2.472828 -2.421659 9.357439 2.416777 -2.416637 5.281895 0.064058 -1.483229 0.241905 0.823789 7.893471 9.707399 5.582412 9.502099 6.311220 -20.799037 0.892043 -0.683892 -49.514877 -7.959264 13.477051 -9.988641 -69.277269 24.827379 -9.871909 -20.732458 -12.655452 19.613918 -2.453326 -1.588243 66.148240 -12.617341 9.165493 -22.190265 39.042335 -22.239630 19.569169 9.870592 -16.136572 
-1.781296 0.811646 1.110172 -99.962850 1.232179 76.987137 -6.275740 1.147123 1.966016 1.530232 -10.372254 6.623955 -2.994822 2.584124 2.149824 0.000000 -0.000000 0.000000 4.463448 4.453276 -11.286493 0.997940 3.484905 41.765876 6.257579 -4.372613 -19.141551 0.000000 -0.000000 0.000000 -2.871452 -2.615550 10.167734 2.575479 -2.990354 4.709699 0.566994 -1.446442 -0.289072 0.493906 7.701480 9.085384 6.034013 8.305900 5.493283 -20.999349 -0.179811 -0.143475 -51.822400 -10.302635 15.734585 -21.302765 -74.019087 38.269359 -4.643531 -24.273888 -17.583122 19.511425 -2.228430 -1.398081 65.907025 -11.922239 10.056654 -20.259668 43.221007 -18.671408 15.411700 11.404308 -16.867674 
-1.814657 0.810608 1.088613 -98.038115 1.719448 76.201674 -5.287952 1.571265 0.936018 0.794088 -12.265465 6.301465 -5.004139 0.491151 2.570700 0.000000 -0.000000 0.000000 5.029753 4.197883 -10.703748 0.734704 4.082116 37.925897 6.737690 -2.706039 -18.372437 0.000000 -0.000000 0.000000 -2.198201 -2.750135 10.183983 2.435958 -3.159986 4.894286 0.604634 -1.475664 -0.254958 0.355848 7.441458 7.832532 6.256849 6.976608 5.101752 -21.466564 -0.600634 -0.194635 -53.772073 -13.001377 15.644617 -42.109911 -77.667520 61.685529 -7.014315 -24.019464 -13.266064 19.985279 -1.657598 -1.428310 64.955941 -10.669032 9.758649 -18.319172 46.430161 -15.413766 12.709295 10.003064 -16.533432 
-1.846076 0.809753 1.056847 -95.275315 2.641114 75.102885 -4.475014 1.828646 -1.102809 0.133893 -12.355882 10.856438 -3.438899 -0.765114 -1.348888 0.000000 -0.000000 0.000000 5.654366 3.972922 -9.490497 0.571099 3.332628 34.686397 7.030368 -1.783091 -17.062529 0.000000 -0.000000 0.000000 -1.358033 -3.332536 11.286278 2.389437 -3.675498 4.415039 0.693324 -1.678468 -0.583756 -0.304477 5.816932 6.020167 6.475121 7.105150 5.404384 -21.984961 -2.614580 0.061692 -55.124889 -14.971662 17.192294 -67.414461 -79.570481 88.474216 -5.233559 -26.784397 -13.899742 19.769494 -0.066889 -1.747289 64.387585 -10.527294 10.449026 -17.582389 48.775521 -13.313567 12.838566 14.566851 -17.165252 
-1.876750 0.810471 1.012535 -93.564062 3.237495 74.010436 -3.862932 0.862310 -5.105751 -3.174284 -13.073313 23.027244 3.673073 -1.630329 -16.644297 0.000000 -0.000000 0.000000 6.151455 2.601945 -9.582711 1.675688 4.381313 34.719970 7.403604 -3.242396 -16.705536 0.000000 -0.000000 0.000000 -0.363202 -3.356236 11.061218 2.157758 -3.756981 3.765639 -0.115043 -2.057640 1.469514 -0.570663 3.976550 2.839924 6.782830 7.518393 6.413978 -22.696104 -4.761940 -0.250085 -54.141074 -17.861092 18.651092 -96.787579 -79.494570 120.431827 -1.669387 -26.594146 -17.004554 20.158893 2.188172 -0.966831 63.753621 -7.970225 11.943051 -19.451642 50.202475 -14.545504 12.767469 15.008487 -18.053010 
-1.906120 0.813238 0.968349 -92.513687 2.056663 72.290903 -5.352805 -1.327364 -10.698388 -7.362677 -9.187805 40.303210 8.561350 3.172973 -25.154735 0.000000 -0.000000 0.000000 5.297805 2.140150 -11.241974 6.522401 7.068684 42.783020 -0.328430 -11.904426 -24.599451 0.000000 -0.000000 0.000000 -1.777000 -1.511540 11.541561 2.226794 -3.667371 4.474890 -0.558838 -2.995513 3.162743 1.129058 4.316040 -2.579634 6.265605 6.400792 9.740335 -22.202354 -6.628232 -1.598649 -53.593842 -20.491115 20.452034 -111.533351 -78.456496 136.728243 2.909980 -27.173509 -17.862577 21.993137 4.159088 -1.863323 62.100737 -5.322427 14.834408 -23.510901 49.127392 -19.315693 14.725414 14.464084 -16.358686 
-1.928921 0.816156 0.940460 -91.943734 0.659390 72.385087 -6.560908 -2.048872 -13.240066 -7.909224 -6.246480 47.142431 9.556204 2.898533 -30.225528 0.000000 -0.000000 0.000000 3.756386 3.414794 -15.647010 3.485832 1.675047 52.370784 0.148206 -10.750943 -28.674440 0.000000 -0.000000 0.000000 -2.725050 -0.879238 12.328526 2.085539 -3.189375 5.036989 -1.155944 -2.590459 1.204078 2.359049 5.455549 -4.389535 4.953715 3.688967 9.908013 -23.748898 -8.048267 -0.361506 -52.068010 -19.377020 20.257272 -120.160351 -78.800078 146.845096 -1.039777 -29.384291 -11.123120 24.308821 5.541454 -1.569991 61.056882 -3.360712 13.374654 -24.349860 45.959125 -19.302911 16.467069 14.988315 -12.484492 
